<svg xmlns="http://www.w3.org/2000/svg" xmlns:xlink="http://www.w3.org/1999/xlink" width="85" zoomAndPan="magnify" viewBox="0 0 63.75 63.749998" height="85" preserveAspectRatio="xMidYMid meet" version="1.0"><defs><clipPath id="3eb88f3e0a"><path d="M 5.679688 5.679688 L 58.179688 5.679688 L 58.179688 58.179688 L 5.679688 58.179688 Z M 5.679688 5.679688 " clip-rule="nonzero"/></clipPath><clipPath id="8bf2fe9d3d"><path d="M 9.636719 15.25 L 53.886719 15.25 L 53.886719 48.25 L 9.636719 48.25 Z M 9.636719 15.25 " clip-rule="nonzero"/></clipPath></defs><g clip-path="url(#3eb88f3e0a)"><path fill="#b0d3fb" d="M 58.179688 31.929688 C 58.179688 32.789062 58.136719 33.648438 58.054688 34.503906 C 57.96875 35.359375 57.84375 36.207031 57.675781 37.050781 C 57.507812 37.894531 57.300781 38.726562 57.050781 39.550781 C 56.800781 40.371094 56.511719 41.179688 56.183594 41.976562 C 55.851562 42.769531 55.484375 43.546875 55.082031 44.304688 C 54.675781 45.0625 54.234375 45.800781 53.757812 46.515625 C 53.277344 47.230469 52.765625 47.917969 52.222656 48.582031 C 51.675781 49.246094 51.101562 49.882812 50.492188 50.492188 C 49.882812 51.101562 49.246094 51.675781 48.582031 52.222656 C 47.917969 52.765625 47.230469 53.277344 46.515625 53.757812 C 45.800781 54.234375 45.0625 54.675781 44.304688 55.082031 C 43.546875 55.484375 42.769531 55.851562 41.976562 56.183594 C 41.179688 56.511719 40.371094 56.800781 39.550781 57.050781 C 38.726562 57.300781 37.894531 57.507812 37.050781 57.675781 C 36.207031 57.84375 35.359375 57.96875 34.503906 58.054688 C 33.648438 58.136719 32.789062 58.179688 31.929688 58.179688 C 31.070312 58.179688 30.214844 58.136719 29.355469 58.054688 C 28.5 57.96875 27.652344 57.84375 26.808594 57.675781 C 25.964844 57.507812 25.132812 57.300781 24.308594 57.050781 C 23.488281 56.800781 22.679688 56.511719 21.886719 56.183594 C 21.089844 55.851562 20.3125 55.484375 19.554688 55.082031 C 18.796875 54.675781 18.0625 54.234375 17.347656 53.757812 C 16.632812 53.277344 15.941406 52.765625 15.277344 52.222656 C 14.613281 51.675781 13.976562 51.101562 13.367188 50.492188 C 12.761719 49.882812 12.183594 49.246094 11.640625 48.582031 C 11.09375 47.917969 10.582031 47.230469 10.105469 46.515625 C 9.625 45.800781 9.183594 45.0625 8.78125 44.304688 C 8.375 43.546875 8.007812 42.769531 7.679688 41.976562 C 7.347656 41.179688 7.058594 40.371094 6.8125 39.550781 C 6.5625 38.726562 6.351562 37.894531 6.183594 37.050781 C 6.015625 36.207031 5.890625 35.359375 5.808594 34.503906 C 5.722656 33.648438 5.679688 32.789062 5.679688 31.929688 C 5.679688 31.070312 5.722656 30.214844 5.808594 29.355469 C 5.890625 28.5 6.015625 27.652344 6.183594 26.808594 C 6.351562 25.964844 6.5625 25.132812 6.8125 24.308594 C 7.058594 23.488281 7.347656 22.679688 7.679688 21.886719 C 8.007812 21.089844 8.375 20.3125 8.78125 19.554688 C 9.183594 18.796875 9.625 18.0625 10.105469 17.347656 C 10.582031 16.632812 11.09375 15.941406 11.640625 15.277344 C 12.183594 14.613281 12.761719 13.976562 13.367188 13.367188 C 13.976562 12.761719 14.613281 12.183594 15.277344 11.640625 C 15.941406 11.09375 16.632812 10.582031 17.347656 10.105469 C 18.0625 9.625 18.796875 9.183594 19.554688 8.78125 C 20.3125 8.375 21.089844 8.007812 21.886719 7.679688 C 22.679688 7.347656 23.488281 7.058594 24.308594 6.8125 C 25.132812 6.5625 25.964844 6.351562 26.808594 6.183594 C 27.652344 6.015625 28.5 5.890625 29.355469 5.808594 C 30.214844 5.722656 31.070312 5.679688 31.929688 5.679688 C 32.789062 5.679688 33.648438 5.722656 34.503906 5.808594 C 35.359375 5.890625 36.207031 6.015625 37.050781 6.183594 C 37.894531 6.351562 38.726562 6.5625 39.550781 6.8125 C 40.371094 7.058594 41.179688 7.347656 41.976562 7.679688 C 42.769531 8.007812 43.546875 8.375 44.304688 8.78125 C 45.0625 9.183594 45.800781 9.625 46.515625 10.105469 C 47.230469 10.582031 47.917969 11.09375 48.582031 11.640625 C 49.246094 12.183594 49.882812 12.761719 50.492188 13.367188 C 51.101562 13.976562 51.675781 14.613281 52.222656 15.277344 C 52.765625 15.941406 53.277344 16.632812 53.757812 17.347656 C 54.234375 18.0625 54.675781 18.796875 55.082031 19.554688 C 55.484375 20.3125 55.851562 21.089844 56.183594 21.886719 C 56.511719 22.679688 56.800781 23.488281 57.050781 24.308594 C 57.300781 25.132812 57.507812 25.964844 57.675781 26.808594 C 57.84375 27.652344 57.96875 28.5 58.054688 29.355469 C 58.136719 30.214844 58.179688 31.070312 58.179688 31.929688 Z M 58.179688 31.929688 " fill-opacity="1" fill-rule="nonzero"/></g><g clip-path="url(#8bf2fe9d3d)"><path fill="#000000" d="M 23.792969 43.886719 L 23.410156 44.265625 C 21.933594 43.71875 20.882812 42.378906 20.882812 40.8125 C 20.882812 40.300781 21 39.792969 21.222656 39.324219 C 21.082031 39.292969 20.949219 39.257812 20.816406 39.214844 C 20.824219 39.128906 20.792969 39.039062 20.726562 38.972656 C 20.601562 38.847656 20.398438 38.847656 20.273438 38.972656 L 20.265625 38.980469 C 19.136719 38.394531 18.390625 37.273438 18.390625 35.992188 C 18.390625 35.679688 18.4375 35.367188 18.53125 35.066406 L 18.984375 35.066406 C 19.164062 35.066406 19.304688 34.921875 19.304688 34.75 C 19.304688 34.574219 19.164062 34.429688 18.984375 34.429688 L 18.570312 34.429688 C 17.90625 33.714844 17.535156 32.800781 17.535156 31.851562 C 17.535156 30.785156 17.996094 29.792969 18.769531 29.070312 L 19.589844 29.070312 C 19.765625 29.070312 19.910156 28.925781 19.910156 28.75 C 19.910156 28.59375 19.796875 28.464844 19.648438 28.4375 C 19.75 28.382812 19.855469 28.332031 19.960938 28.285156 C 19.496094 27.730469 19.246094 27.058594 19.246094 26.34375 C 19.246094 25.566406 19.550781 24.855469 20.050781 24.304688 L 20.273438 24.527344 C 20.335938 24.589844 20.417969 24.621094 20.5 24.621094 C 20.582031 24.621094 20.664062 24.589844 20.726562 24.527344 C 20.851562 24.402344 20.851562 24.203125 20.726562 24.078125 L 20.523438 23.875 C 20.996094 23.523438 21.574219 23.28125 22.203125 23.207031 C 22.132812 22.976562 22.097656 22.738281 22.097656 22.492188 C 22.097656 21.292969 22.980469 20.28125 24.171875 19.996094 L 24.636719 20.457031 C 24.699219 20.519531 24.78125 20.550781 24.863281 20.550781 C 23.6875 20.550781 22.734375 21.421875 22.734375 22.492188 C 22.734375 22.789062 22.808594 23.078125 22.953125 23.347656 C 23.003906 23.445312 23.003906 23.5625 22.945312 23.660156 C 22.886719 23.757812 22.785156 23.816406 22.671875 23.816406 L 22.652344 23.816406 C 21.125 23.816406 19.882812 24.949219 19.882812 26.34375 C 19.882812 27.039062 20.1875 27.6875 20.742188 28.171875 C 20.828125 28.246094 20.867188 28.363281 20.84375 28.476562 C 20.820312 28.589844 20.738281 28.679688 20.625 28.714844 C 19.160156 29.171875 18.171875 30.433594 18.171875 31.855469 C 18.171875 32.78125 18.582031 33.640625 19.324219 34.273438 C 19.441406 34.375 19.46875 34.542969 19.390625 34.675781 C 19.15625 35.078125 19.03125 35.535156 19.03125 35.996094 C 19.03125 37.425781 20.199219 38.617188 21.75 38.765625 C 21.863281 38.777344 21.960938 38.84375 22.007812 38.945312 C 22.058594 39.042969 22.050781 39.160156 21.988281 39.253906 C 21.683594 39.730469 21.523438 40.269531 21.523438 40.8125 C 21.523438 42.246094 22.601562 43.457031 24.054688 43.796875 C 23.960938 43.785156 23.863281 43.8125 23.792969 43.886719 Z M 30.613281 36.789062 L 27.207031 36.789062 L 27.207031 27.65625 L 30.613281 27.65625 C 30.792969 27.65625 30.933594 27.511719 30.933594 27.335938 L 30.933594 18.769531 C 30.933594 18.664062 30.882812 18.566406 30.796875 18.507812 C 30.765625 18.488281 30.050781 18 28.945312 17.898438 C 27.515625 17.769531 25.894531 18.246094 25.46875 19.933594 C 25.394531 19.933594 25.3125 19.929688 25.246094 19.925781 C 25.164062 19.921875 25.078125 19.917969 24.996094 19.917969 L 25.085938 20.007812 C 25.210938 20.132812 25.210938 20.332031 25.085938 20.457031 C 25.023438 20.519531 24.941406 20.550781 24.863281 20.550781 C 24.960938 20.550781 25.09375 20.558594 25.21875 20.5625 C 25.722656 20.585938 26 20.597656 26.046875 20.285156 C 26.359375 18.453125 28.300781 18.480469 28.886719 18.535156 C 29.558594 18.597656 30.066406 18.828125 30.296875 18.953125 L 30.296875 27.019531 L 26.886719 27.019531 C 26.710938 27.019531 26.566406 27.164062 26.566406 27.339844 L 26.566406 37.105469 C 26.566406 37.28125 26.710938 37.425781 26.886719 37.425781 L 30.296875 37.425781 L 30.296875 45.65625 C 28.773438 46.304688 27.578125 45.875 26.988281 45.550781 C 26.210938 45.121094 25.804688 44.511719 25.757812 44.128906 C 25.746094 44.042969 25.703125 43.964844 25.632812 43.914062 C 25.578125 43.871094 25.511719 43.847656 25.441406 43.847656 C 25.425781 43.847656 25.410156 43.847656 25.394531 43.851562 C 25.214844 43.878906 25.046875 43.890625 24.882812 43.890625 C 24.617188 43.890625 24.359375 43.859375 24.109375 43.808594 C 24.160156 43.820312 24.203125 43.847656 24.242188 43.886719 C 24.367188 44.007812 24.367188 44.210938 24.242188 44.335938 L 24.117188 44.457031 C 24.367188 44.503906 24.621094 44.527344 24.882812 44.527344 C 24.984375 44.527344 25.089844 44.523438 25.195312 44.515625 C 25.394531 45.105469 25.949219 45.707031 26.683594 46.109375 C 27.308594 46.453125 28 46.625 28.707031 46.625 C 29.386719 46.625 30.085938 46.464844 30.75 46.148438 C 30.863281 46.09375 30.933594 45.984375 30.933594 45.863281 L 30.933594 37.105469 C 30.933594 36.929688 30.792969 36.789062 30.613281 36.789062 Z M 39.277344 43.886719 C 39.300781 43.859375 39.328125 43.84375 39.359375 43.828125 C 39.140625 43.867188 38.914062 43.890625 38.683594 43.890625 C 38.519531 43.890625 38.351562 43.878906 38.171875 43.851562 C 38.085938 43.839844 38 43.863281 37.929688 43.914062 C 37.863281 43.964844 37.820312 44.042969 37.808594 44.128906 C 37.761719 44.511719 37.355469 45.121094 36.574219 45.550781 C 35.984375 45.875 34.792969 46.304688 33.269531 45.65625 L 33.269531 37.425781 L 36.679688 37.425781 C 36.855469 37.425781 37 37.28125 37 37.105469 L 37 27.335938 C 37 27.160156 36.855469 27.019531 36.679688 27.019531 L 33.269531 27.019531 L 33.269531 18.949219 C 33.5 18.828125 34.003906 18.59375 34.679688 18.535156 C 35.265625 18.480469 37.207031 18.449219 37.515625 20.28125 C 37.566406 20.597656 37.84375 20.585938 38.347656 20.5625 C 38.472656 20.558594 38.605469 20.550781 38.703125 20.550781 C 39.878906 20.550781 40.832031 21.421875 40.832031 22.492188 C 40.832031 22.789062 40.757812 23.078125 40.613281 23.34375 C 40.5625 23.445312 40.5625 23.5625 40.621094 23.660156 C 40.679688 23.753906 40.785156 23.816406 40.894531 23.816406 L 40.917969 23.816406 C 41.609375 23.816406 42.246094 24.050781 42.734375 24.4375 C 42.675781 24.320312 42.695312 24.175781 42.796875 24.078125 L 43.019531 23.855469 C 42.550781 23.511719 41.980469 23.28125 41.363281 23.207031 C 41.433594 22.976562 41.472656 22.738281 41.472656 22.492188 C 41.472656 21.28125 40.570312 20.261719 39.355469 19.988281 L 38.882812 20.457031 C 38.824219 20.519531 38.738281 20.550781 38.660156 20.550781 C 38.578125 20.550781 38.496094 20.523438 38.433594 20.457031 C 38.308594 20.335938 38.308594 20.132812 38.433594 20.007812 L 38.523438 19.917969 C 38.457031 19.921875 38.386719 19.925781 38.316406 19.925781 C 38.25 19.929688 38.167969 19.933594 38.09375 19.9375 C 37.671875 18.25 36.050781 17.769531 34.621094 17.898438 C 33.511719 18 32.796875 18.488281 32.769531 18.507812 C 32.683594 18.570312 32.632812 18.667969 32.632812 18.769531 L 32.632812 27.339844 C 32.632812 27.515625 32.773438 27.65625 32.949219 27.65625 L 36.359375 27.65625 L 36.359375 36.789062 L 32.949219 36.789062 C 32.773438 36.789062 32.632812 36.929688 32.632812 37.105469 L 32.632812 45.863281 C 32.632812 45.984375 32.703125 46.097656 32.8125 46.148438 C 33.480469 46.464844 34.175781 46.625 34.855469 46.625 C 35.5625 46.625 36.257812 46.453125 36.878906 46.109375 C 37.617188 45.707031 38.167969 45.105469 38.367188 44.515625 C 38.472656 44.523438 38.578125 44.527344 38.679688 44.527344 C 38.929688 44.527344 39.167969 44.503906 39.40625 44.464844 L 39.273438 44.335938 C 39.152344 44.210938 39.152344 44.007812 39.277344 43.886719 Z M 43.019531 24.621094 C 42.988281 24.621094 42.953125 24.613281 42.921875 24.605469 C 43.394531 25.058594 43.683594 25.667969 43.683594 26.34375 C 43.683594 27.039062 43.378906 27.6875 42.824219 28.171875 C 42.738281 28.246094 42.699219 28.363281 42.722656 28.476562 C 42.746094 28.589844 42.828125 28.679688 42.941406 28.714844 C 44.40625 29.171875 45.394531 30.433594 45.394531 31.851562 C 45.394531 32.777344 44.984375 33.636719 44.242188 34.273438 C 44.121094 34.375 44.09375 34.546875 44.175781 34.675781 C 44.1875 34.703125 44.203125 34.726562 44.214844 34.753906 C 44.214844 34.75 44.214844 34.75 44.214844 34.75 C 44.214844 34.574219 44.359375 34.429688 44.535156 34.429688 L 44.996094 34.429688 C 45.660156 33.714844 46.03125 32.796875 46.03125 31.851562 C 46.03125 30.785156 45.570312 29.792969 44.796875 29.070312 L 43.929688 29.070312 C 43.753906 29.070312 43.613281 28.925781 43.613281 28.75 C 43.613281 28.582031 43.746094 28.445312 43.914062 28.4375 C 43.8125 28.382812 43.710938 28.332031 43.605469 28.285156 C 44.070312 27.730469 44.320312 27.058594 44.320312 26.34375 C 44.320312 25.554688 44.007812 24.835938 43.496094 24.28125 L 43.246094 24.527344 C 43.183594 24.589844 43.101562 24.621094 43.019531 24.621094 Z M 44.335938 34.996094 C 44.46875 35.308594 44.535156 35.644531 44.535156 35.996094 C 44.535156 37.425781 43.367188 38.617188 41.816406 38.765625 C 41.703125 38.777344 41.609375 38.84375 41.558594 38.941406 C 41.511719 39.042969 41.515625 39.160156 41.578125 39.253906 C 41.882812 39.726562 42.042969 40.265625 42.042969 40.8125 C 42.042969 42.242188 40.96875 43.453125 39.519531 43.792969 C 39.597656 43.796875 39.671875 43.828125 39.730469 43.886719 L 40.121094 44.277344 C 41.617188 43.738281 42.683594 42.390625 42.683594 40.8125 C 42.683594 40.300781 42.566406 39.792969 42.34375 39.324219 C 42.46875 39.300781 42.585938 39.265625 42.703125 39.230469 C 42.695312 39.136719 42.722656 39.042969 42.792969 38.972656 C 42.917969 38.847656 43.121094 38.847656 43.246094 38.972656 L 43.269531 38.996094 C 44.414062 38.414062 45.175781 37.285156 45.175781 35.996094 C 45.175781 35.679688 45.128906 35.367188 45.035156 35.066406 L 44.535156 35.066406 C 44.457031 35.066406 44.390625 35.039062 44.335938 34.996094 Z M 33.050781 34.15625 L 32.179688 34.15625 L 31.835938 33.21875 L 30.160156 33.21875 L 29.816406 34.15625 L 28.96875 34.15625 L 30.550781 30.046875 L 31.480469 30.046875 Z M 31.566406 32.488281 L 31 30.933594 L 30.429688 32.488281 Z M 33.578125 30.046875 L 33.578125 34.15625 L 34.394531 34.15625 L 34.394531 30.046875 Z M 24.863281 20.550781 C 24.945312 20.550781 25.023438 20.519531 25.089844 20.457031 C 25.214844 20.332031 25.214844 20.132812 25.089844 20.007812 L 24.996094 19.917969 L 21.617188 16.546875 C 21.558594 16.484375 21.476562 16.453125 21.390625 16.453125 L 18.417969 16.453125 C 18.394531 16.453125 18.371094 16.453125 18.351562 16.457031 C 18.375 16.5625 18.386719 16.671875 18.386719 16.785156 C 18.386719 16.886719 18.375 16.984375 18.355469 17.082031 C 18.375 17.085938 18.394531 17.089844 18.417969 17.089844 L 21.257812 17.089844 L 24.171875 19.996094 L 24.636719 20.457031 C 24.699219 20.519531 24.78125 20.550781 24.863281 20.550781 Z M 18.386719 16.785156 C 18.386719 16.886719 18.375 16.988281 18.355469 17.082031 C 18.21875 17.777344 17.601562 18.304688 16.863281 18.304688 C 16.019531 18.304688 15.335938 17.621094 15.335938 16.785156 C 15.335938 15.945312 16.019531 15.261719 16.863281 15.261719 C 17.589844 15.261719 18.199219 15.777344 18.351562 16.460938 C 18.375 16.566406 18.386719 16.671875 18.386719 16.785156 Z M 17.75 16.785156 C 17.75 16.296875 17.351562 15.898438 16.863281 15.898438 C 16.375 15.898438 15.976562 16.296875 15.976562 16.785156 C 15.976562 17.273438 16.371094 17.667969 16.863281 17.667969 C 17.351562 17.667969 17.75 17.273438 17.75 16.785156 Z M 20.5 24.621094 C 20.582031 24.621094 20.664062 24.589844 20.726562 24.527344 C 20.851562 24.402344 20.851562 24.203125 20.726562 24.078125 L 20.523438 23.875 L 18.054688 21.410156 C 17.992188 21.351562 17.914062 21.316406 17.828125 21.316406 L 15.078125 21.316406 C 15.074219 21.316406 15.066406 21.320312 15.0625 21.320312 C 15.085938 21.421875 15.09375 21.527344 15.09375 21.636719 C 15.09375 21.746094 15.085938 21.851562 15.0625 21.953125 C 15.066406 21.953125 15.074219 21.953125 15.078125 21.953125 L 17.695312 21.953125 L 20.050781 24.304688 L 20.273438 24.527344 C 20.335938 24.589844 20.417969 24.621094 20.5 24.621094 Z M 15.09375 21.636719 C 15.09375 21.746094 15.085938 21.851562 15.0625 21.953125 C 14.914062 22.640625 14.300781 23.15625 13.570312 23.15625 C 12.730469 23.15625 12.046875 22.476562 12.046875 21.636719 C 12.046875 20.796875 12.730469 20.117188 13.570312 20.117188 C 14.300781 20.117188 14.914062 20.632812 15.0625 21.320312 C 15.085938 21.421875 15.09375 21.527344 15.09375 21.636719 Z M 14.457031 21.636719 C 14.457031 21.148438 14.058594 20.753906 13.570312 20.753906 C 13.082031 20.753906 12.683594 21.148438 12.683594 21.636719 C 12.683594 22.125 13.082031 22.519531 13.570312 22.519531 C 14.058594 22.519531 14.457031 22.125 14.457031 21.636719 Z M 19.910156 28.75 C 19.910156 28.59375 19.796875 28.464844 19.648438 28.4375 C 19.628906 28.4375 19.609375 28.433594 19.589844 28.433594 L 12.652344 28.433594 C 12.671875 28.535156 12.683594 28.640625 12.683594 28.75 C 12.683594 28.859375 12.671875 28.964844 12.652344 29.070312 L 19.589844 29.070312 C 19.765625 29.070312 19.910156 28.925781 19.910156 28.75 Z M 12.683594 28.75 C 12.683594 28.859375 12.671875 28.96875 12.648438 29.070312 C 12.503906 29.753906 11.890625 30.273438 11.160156 30.273438 C 10.320312 30.273438 9.636719 29.589844 9.636719 28.75 C 9.636719 27.914062 10.320312 27.230469 11.160156 27.230469 C 11.890625 27.230469 12.503906 27.746094 12.652344 28.433594 C 12.671875 28.535156 12.683594 28.640625 12.683594 28.75 Z M 12.046875 28.75 C 12.046875 28.265625 11.648438 27.867188 11.160156 27.867188 C 10.671875 27.867188 10.273438 28.261719 10.273438 28.75 C 10.273438 29.238281 10.671875 29.636719 11.160156 29.636719 C 11.648438 29.636719 12.046875 29.238281 12.046875 28.75 Z M 24.242188 43.886719 C 24.203125 43.847656 24.160156 43.820312 24.113281 43.808594 C 24.09375 43.800781 24.074219 43.796875 24.054688 43.792969 C 23.960938 43.785156 23.863281 43.8125 23.792969 43.886719 L 23.410156 44.265625 L 21.257812 46.410156 L 18.417969 46.410156 C 18.398438 46.410156 18.375 46.414062 18.355469 46.417969 C 18.375 46.515625 18.386719 46.613281 18.386719 46.714844 C 18.386719 46.828125 18.375 46.933594 18.351562 47.039062 C 18.371094 47.042969 18.394531 47.046875 18.417969 47.046875 L 21.394531 47.046875 C 21.476562 47.046875 21.558594 47.015625 21.617188 46.953125 L 24.121094 44.457031 L 24.242188 44.335938 C 24.367188 44.210938 24.367188 44.007812 24.242188 43.886719 Z M 18.386719 46.714844 C 18.386719 46.828125 18.371094 46.933594 18.351562 47.039062 C 18.199219 47.722656 17.589844 48.238281 16.863281 48.238281 C 16.019531 48.238281 15.335938 47.554688 15.335938 46.714844 C 15.335938 45.875 16.019531 45.195312 16.863281 45.195312 C 17.601562 45.195312 18.21875 45.71875 18.355469 46.417969 C 18.375 46.511719 18.386719 46.613281 18.386719 46.714844 Z M 17.75 46.714844 C 17.75 46.226562 17.351562 45.832031 16.863281 45.832031 C 16.375 45.832031 15.976562 46.226562 15.976562 46.714844 C 15.976562 47.203125 16.371094 47.601562 16.863281 47.601562 C 17.351562 47.601562 17.75 47.203125 17.75 46.714844 Z M 20.726562 38.972656 C 20.601562 38.847656 20.398438 38.847656 20.273438 38.972656 L 20.265625 38.980469 L 17.695312 41.542969 L 15.078125 41.542969 C 15.074219 41.542969 15.066406 41.546875 15.0625 41.546875 C 15.085938 41.648438 15.09375 41.753906 15.09375 41.863281 C 15.09375 41.972656 15.085938 42.078125 15.0625 42.179688 C 15.066406 42.179688 15.074219 42.183594 15.078125 42.183594 L 17.828125 42.183594 C 17.914062 42.183594 17.992188 42.148438 18.054688 42.089844 L 20.726562 39.421875 C 20.785156 39.363281 20.8125 39.289062 20.816406 39.214844 C 20.824219 39.128906 20.792969 39.039062 20.726562 38.972656 Z M 15.09375 41.863281 C 15.09375 41.972656 15.085938 42.078125 15.0625 42.179688 C 14.914062 42.867188 14.300781 43.382812 13.570312 43.382812 C 12.730469 43.382812 12.046875 42.703125 12.046875 41.863281 C 12.046875 41.023438 12.730469 40.34375 13.570312 40.34375 C 14.300781 40.34375 14.914062 40.859375 15.0625 41.546875 C 15.085938 41.648438 15.09375 41.753906 15.09375 41.863281 Z M 14.457031 41.863281 C 14.457031 41.375 14.058594 40.976562 13.570312 40.976562 C 13.082031 40.976562 12.683594 41.375 12.683594 41.863281 C 12.683594 42.351562 13.082031 42.746094 13.570312 42.746094 C 14.058594 42.746094 14.457031 42.351562 14.457031 41.863281 Z M 19.304688 34.75 C 19.304688 34.574219 19.164062 34.429688 18.988281 34.429688 L 12.652344 34.429688 C 12.671875 34.53125 12.683594 34.640625 12.683594 34.75 C 12.683594 34.859375 12.671875 34.964844 12.652344 35.066406 L 18.984375 35.066406 C 19.164062 35.066406 19.304688 34.921875 19.304688 34.75 Z M 12.683594 34.75 C 12.683594 34.859375 12.671875 34.964844 12.648438 35.066406 C 12.503906 35.75 11.890625 36.269531 11.160156 36.269531 C 10.320312 36.269531 9.636719 35.585938 9.636719 34.75 C 9.636719 33.910156 10.320312 33.226562 11.160156 33.226562 C 11.890625 33.226562 12.503906 33.742188 12.652344 34.429688 C 12.671875 34.53125 12.683594 34.640625 12.683594 34.75 Z M 12.046875 34.75 C 12.046875 34.261719 11.648438 33.863281 11.160156 33.863281 C 10.671875 33.863281 10.273438 34.261719 10.273438 34.75 C 10.273438 35.234375 10.671875 35.632812 11.160156 35.632812 C 11.648438 35.632812 12.046875 35.234375 12.046875 34.75 Z M 38.433594 20.457031 C 38.496094 20.519531 38.578125 20.550781 38.65625 20.550781 C 38.738281 20.550781 38.820312 20.519531 38.882812 20.457031 L 39.355469 19.988281 L 42.261719 17.089844 L 45.101562 17.089844 C 45.125 17.089844 45.144531 17.085938 45.164062 17.082031 C 45.144531 16.984375 45.132812 16.886719 45.132812 16.785156 C 45.132812 16.671875 45.148438 16.566406 45.167969 16.460938 C 45.148438 16.453125 45.125 16.453125 45.101562 16.453125 L 42.128906 16.453125 C 42.042969 16.453125 41.960938 16.484375 41.902344 16.546875 L 38.519531 19.917969 L 38.429688 20.007812 C 38.308594 20.132812 38.308594 20.332031 38.433594 20.457031 Z M 45.132812 16.785156 C 45.132812 16.671875 45.148438 16.566406 45.167969 16.460938 C 45.320312 15.777344 45.929688 15.261719 46.660156 15.261719 C 47.5 15.261719 48.183594 15.945312 48.183594 16.785156 C 48.183594 17.625 47.5 18.304688 46.660156 18.304688 C 45.921875 18.304688 45.304688 17.78125 45.164062 17.082031 C 45.144531 16.988281 45.132812 16.886719 45.132812 16.785156 Z M 45.773438 16.785156 C 45.773438 17.273438 46.167969 17.667969 46.660156 17.667969 C 47.148438 17.667969 47.546875 17.273438 47.546875 16.785156 C 47.546875 16.296875 47.148438 15.898438 46.660156 15.898438 C 46.167969 15.898438 45.773438 16.296875 45.773438 16.785156 Z M 42.734375 24.4375 C 42.746094 24.46875 42.769531 24.5 42.792969 24.527344 C 42.832031 24.566406 42.875 24.589844 42.921875 24.605469 C 42.953125 24.613281 42.988281 24.621094 43.019531 24.621094 C 43.101562 24.621094 43.183594 24.589844 43.246094 24.527344 L 43.496094 24.277344 L 45.824219 21.953125 L 48.441406 21.953125 C 48.449219 21.953125 48.453125 21.953125 48.457031 21.953125 C 48.4375 21.851562 48.425781 21.746094 48.425781 21.636719 C 48.425781 21.527344 48.4375 21.421875 48.457031 21.320312 C 48.453125 21.320312 48.449219 21.316406 48.441406 21.316406 L 45.691406 21.316406 C 45.609375 21.316406 45.527344 21.351562 45.46875 21.410156 L 43.015625 23.855469 L 42.792969 24.078125 C 42.695312 24.175781 42.675781 24.320312 42.734375 24.4375 Z M 48.425781 21.636719 C 48.425781 21.527344 48.4375 21.421875 48.457031 21.320312 C 48.605469 20.632812 49.21875 20.117188 49.949219 20.117188 C 50.789062 20.117188 51.472656 20.796875 51.472656 21.636719 C 51.472656 22.476562 50.789062 23.15625 49.949219 23.15625 C 49.21875 23.15625 48.605469 22.640625 48.457031 21.953125 C 48.4375 21.851562 48.425781 21.746094 48.425781 21.636719 Z M 49.0625 21.636719 C 49.0625 22.125 49.460938 22.519531 49.949219 22.519531 C 50.4375 22.519531 50.835938 22.125 50.835938 21.636719 C 50.835938 21.148438 50.4375 20.753906 49.949219 20.753906 C 49.460938 20.753906 49.0625 21.148438 49.0625 21.636719 Z M 43.613281 28.75 C 43.613281 28.925781 43.753906 29.070312 43.929688 29.070312 L 50.867188 29.070312 C 50.847656 28.96875 50.835938 28.859375 50.835938 28.75 C 50.835938 28.644531 50.847656 28.535156 50.867188 28.433594 L 43.929688 28.433594 C 43.921875 28.433594 43.917969 28.4375 43.910156 28.4375 C 43.746094 28.445312 43.613281 28.582031 43.613281 28.75 Z M 50.835938 28.75 C 50.835938 28.640625 50.847656 28.535156 50.871094 28.433594 C 51.019531 27.746094 51.628906 27.230469 52.359375 27.230469 C 53.203125 27.230469 53.886719 27.914062 53.886719 28.753906 C 53.886719 29.589844 53.199219 30.273438 52.359375 30.273438 C 51.628906 30.273438 51.015625 29.753906 50.871094 29.070312 C 50.847656 28.96875 50.835938 28.859375 50.835938 28.75 Z M 51.472656 28.75 C 51.472656 29.238281 51.871094 29.636719 52.359375 29.636719 C 52.847656 29.636719 53.246094 29.238281 53.246094 28.75 C 53.246094 28.265625 52.851562 27.867188 52.359375 27.867188 C 51.871094 27.867188 51.472656 28.261719 51.472656 28.75 Z M 39.519531 43.792969 C 39.464844 43.789062 39.410156 43.800781 39.359375 43.828125 C 39.328125 43.84375 39.300781 43.859375 39.277344 43.886719 C 39.152344 44.007812 39.152344 44.210938 39.277344 44.335938 L 39.40625 44.464844 L 41.902344 46.953125 C 41.964844 47.015625 42.042969 47.046875 42.128906 47.046875 L 45.105469 47.046875 C 45.128906 47.046875 45.148438 47.046875 45.171875 47.042969 C 45.148438 46.9375 45.136719 46.828125 45.136719 46.714844 C 45.136719 46.613281 45.144531 46.515625 45.164062 46.417969 C 45.144531 46.414062 45.125 46.410156 45.105469 46.410156 L 42.261719 46.410156 L 40.125 44.277344 L 39.730469 43.886719 C 39.671875 43.828125 39.597656 43.796875 39.519531 43.792969 Z M 45.132812 46.714844 C 45.132812 46.613281 45.144531 46.511719 45.164062 46.417969 C 45.304688 45.722656 45.921875 45.195312 46.660156 45.195312 C 47.5 45.195312 48.183594 45.878906 48.183594 46.714844 C 48.183594 47.554688 47.5 48.238281 46.660156 48.238281 C 45.929688 48.238281 45.320312 47.722656 45.171875 47.042969 C 45.148438 46.933594 45.132812 46.828125 45.132812 46.714844 Z M 45.773438 46.714844 C 45.773438 47.203125 46.167969 47.601562 46.660156 47.601562 C 47.148438 47.601562 47.546875 47.203125 47.546875 46.714844 C 47.546875 46.226562 47.148438 45.832031 46.660156 45.832031 C 46.167969 45.832031 45.773438 46.226562 45.773438 46.714844 Z M 42.792969 38.972656 C 42.722656 39.042969 42.695312 39.136719 42.703125 39.226562 C 42.710938 39.296875 42.742188 39.367188 42.792969 39.421875 L 45.46875 42.085938 C 45.527344 42.148438 45.609375 42.179688 45.691406 42.179688 L 48.441406 42.179688 C 48.449219 42.179688 48.453125 42.179688 48.457031 42.179688 C 48.4375 42.078125 48.425781 41.972656 48.425781 41.863281 C 48.425781 41.753906 48.4375 41.648438 48.457031 41.546875 C 48.453125 41.546875 48.449219 41.542969 48.441406 41.542969 L 45.824219 41.542969 L 43.269531 38.996094 L 43.246094 38.972656 C 43.121094 38.847656 42.917969 38.847656 42.792969 38.972656 Z M 48.425781 41.863281 C 48.425781 41.753906 48.4375 41.648438 48.457031 41.546875 C 48.605469 40.859375 49.21875 40.34375 49.949219 40.34375 C 50.789062 40.34375 51.472656 41.023438 51.472656 41.863281 C 51.472656 42.703125 50.789062 43.382812 49.949219 43.382812 C 49.21875 43.382812 48.605469 42.867188 48.457031 42.179688 C 48.4375 42.078125 48.425781 41.972656 48.425781 41.863281 Z M 49.0625 41.863281 C 49.0625 42.351562 49.460938 42.746094 49.949219 42.746094 C 50.4375 42.746094 50.835938 42.351562 50.835938 41.863281 C 50.835938 41.375 50.4375 40.976562 49.949219 40.976562 C 49.460938 40.976562 49.0625 41.375 49.0625 41.863281 Z M 50.871094 34.429688 L 44.535156 34.429688 C 44.359375 34.429688 44.214844 34.574219 44.214844 34.75 C 44.214844 34.75 44.214844 34.75 44.214844 34.753906 C 44.214844 34.851562 44.261719 34.9375 44.335938 34.996094 C 44.390625 35.039062 44.457031 35.066406 44.535156 35.066406 L 50.871094 35.066406 C 50.847656 34.964844 50.835938 34.859375 50.835938 34.75 C 50.835938 34.640625 50.847656 34.53125 50.871094 34.429688 Z M 53.886719 34.75 C 53.886719 35.585938 53.199219 36.269531 52.359375 36.269531 C 51.628906 36.269531 51.015625 35.753906 50.871094 35.066406 C 50.847656 34.964844 50.835938 34.859375 50.835938 34.75 C 50.835938 34.640625 50.847656 34.535156 50.871094 34.429688 C 51.015625 33.746094 51.628906 33.230469 52.359375 33.230469 C 53.199219 33.226562 53.886719 33.910156 53.886719 34.75 Z M 53.246094 34.75 C 53.246094 34.261719 52.851562 33.863281 52.359375 33.863281 C 51.871094 33.863281 51.472656 34.261719 51.472656 34.75 C 51.472656 35.234375 51.871094 35.632812 52.359375 35.632812 C 52.851562 35.632812 53.246094 35.234375 53.246094 34.75 Z M 53.246094 34.75 " fill-opacity="1" fill-rule="nonzero"/></g></svg>