<svg xmlns="http://www.w3.org/2000/svg" xmlns:xlink="http://www.w3.org/1999/xlink" width="85" zoomAndPan="magnify" viewBox="0 0 63.75 63.749998" height="85" preserveAspectRatio="xMidYMid meet" version="1.0"><defs><clipPath id="5c77424f06"><path d="M 5.679688 5.679688 L 58.179688 5.679688 L 58.179688 58.179688 L 5.679688 58.179688 Z M 5.679688 5.679688 " clip-rule="nonzero"/></clipPath><clipPath id="6f1893fd7e"><path d="M 19 31 L 50.03125 31 L 50.03125 33 L 19 33 Z M 19 31 " clip-rule="nonzero"/></clipPath><clipPath id="e144d5e114"><path d="M 34 19 L 50.03125 19 L 50.03125 21 L 34 21 Z M 34 19 " clip-rule="nonzero"/></clipPath><clipPath id="24989c708e"><path d="M 14.027344 43 L 45 43 L 45 45 L 14.027344 45 Z M 14.027344 43 " clip-rule="nonzero"/></clipPath><clipPath id="5fa15d861d"><path d="M 28 16.660156 L 36 16.660156 L 36 24 L 28 24 Z M 28 16.660156 " clip-rule="nonzero"/></clipPath><clipPath id="b9af140598"><path d="M 14.027344 28 L 22 28 L 22 36 L 14.027344 36 Z M 14.027344 28 " clip-rule="nonzero"/></clipPath><clipPath id="21971a8e62"><path d="M 42 40 L 50.03125 40 L 50.03125 47.410156 L 42 47.410156 Z M 42 40 " clip-rule="nonzero"/></clipPath><clipPath id="0505551d11"><path d="M 14.027344 19 L 30 19 L 30 21 L 14.027344 21 Z M 14.027344 19 " clip-rule="nonzero"/></clipPath></defs><g clip-path="url(#5c77424f06)"><path fill="#f7d278" d="M 58.179688 31.929688 C 58.179688 32.789062 58.136719 33.648438 58.054688 34.503906 C 57.96875 35.359375 57.84375 36.207031 57.675781 37.050781 C 57.507812 37.894531 57.300781 38.726562 57.050781 39.550781 C 56.800781 40.371094 56.511719 41.179688 56.183594 41.976562 C 55.851562 42.769531 55.484375 43.546875 55.082031 44.304688 C 54.675781 45.0625 54.234375 45.800781 53.757812 46.515625 C 53.277344 47.230469 52.765625 47.917969 52.222656 48.582031 C 51.675781 49.246094 51.101562 49.882812 50.492188 50.492188 C 49.882812 51.101562 49.246094 51.675781 48.582031 52.222656 C 47.917969 52.765625 47.230469 53.277344 46.515625 53.757812 C 45.800781 54.234375 45.0625 54.675781 44.304688 55.082031 C 43.546875 55.484375 42.769531 55.851562 41.976562 56.183594 C 41.179688 56.511719 40.371094 56.800781 39.550781 57.050781 C 38.726562 57.300781 37.894531 57.507812 37.050781 57.675781 C 36.207031 57.84375 35.359375 57.96875 34.503906 58.054688 C 33.648438 58.136719 32.789062 58.179688 31.929688 58.179688 C 31.070312 58.179688 30.214844 58.136719 29.355469 58.054688 C 28.5 57.96875 27.652344 57.84375 26.808594 57.675781 C 25.964844 57.507812 25.132812 57.300781 24.308594 57.050781 C 23.488281 56.800781 22.679688 56.511719 21.886719 56.183594 C 21.089844 55.851562 20.3125 55.484375 19.554688 55.082031 C 18.796875 54.675781 18.0625 54.234375 17.347656 53.757812 C 16.632812 53.277344 15.941406 52.765625 15.277344 52.222656 C 14.613281 51.675781 13.976562 51.101562 13.367188 50.492188 C 12.761719 49.882812 12.183594 49.246094 11.640625 48.582031 C 11.09375 47.917969 10.582031 47.230469 10.105469 46.515625 C 9.625 45.800781 9.183594 45.0625 8.78125 44.304688 C 8.375 43.546875 8.007812 42.769531 7.679688 41.976562 C 7.347656 41.179688 7.058594 40.371094 6.8125 39.550781 C 6.5625 38.726562 6.351562 37.894531 6.183594 37.050781 C 6.015625 36.207031 5.890625 35.359375 5.808594 34.503906 C 5.722656 33.648438 5.679688 32.789062 5.679688 31.929688 C 5.679688 31.070312 5.722656 30.214844 5.808594 29.355469 C 5.890625 28.5 6.015625 27.652344 6.183594 26.808594 C 6.351562 25.964844 6.5625 25.132812 6.8125 24.308594 C 7.058594 23.488281 7.347656 22.679688 7.679688 21.886719 C 8.007812 21.089844 8.375 20.3125 8.78125 19.554688 C 9.183594 18.796875 9.625 18.0625 10.105469 17.347656 C 10.582031 16.632812 11.09375 15.941406 11.640625 15.277344 C 12.183594 14.613281 12.761719 13.976562 13.367188 13.367188 C 13.976562 12.761719 14.613281 12.183594 15.277344 11.640625 C 15.941406 11.09375 16.632812 10.582031 17.347656 10.105469 C 18.0625 9.625 18.796875 9.183594 19.554688 8.78125 C 20.3125 8.375 21.089844 8.007812 21.886719 7.679688 C 22.679688 7.347656 23.488281 7.058594 24.308594 6.8125 C 25.132812 6.5625 25.964844 6.351562 26.808594 6.183594 C 27.652344 6.015625 28.5 5.890625 29.355469 5.808594 C 30.214844 5.722656 31.070312 5.679688 31.929688 5.679688 C 32.789062 5.679688 33.648438 5.722656 34.503906 5.808594 C 35.359375 5.890625 36.207031 6.015625 37.050781 6.183594 C 37.894531 6.351562 38.726562 6.5625 39.550781 6.8125 C 40.371094 7.058594 41.179688 7.347656 41.976562 7.679688 C 42.769531 8.007812 43.546875 8.375 44.304688 8.78125 C 45.0625 9.183594 45.800781 9.625 46.515625 10.105469 C 47.230469 10.582031 47.917969 11.09375 48.582031 11.640625 C 49.246094 12.183594 49.882812 12.761719 50.492188 13.367188 C 51.101562 13.976562 51.675781 14.613281 52.222656 15.277344 C 52.765625 15.941406 53.277344 16.632812 53.757812 17.347656 C 54.234375 18.0625 54.675781 18.796875 55.082031 19.554688 C 55.484375 20.3125 55.851562 21.089844 56.183594 21.886719 C 56.511719 22.679688 56.800781 23.488281 57.050781 24.308594 C 57.300781 25.132812 57.507812 25.964844 57.675781 26.808594 C 57.84375 27.652344 57.96875 28.5 58.054688 29.355469 C 58.136719 30.214844 58.179688 31.070312 58.179688 31.929688 Z M 58.179688 31.929688 " fill-opacity="1" fill-rule="nonzero"/></g><g clip-path="url(#6f1893fd7e)"><path fill="#000000" d="M 49.234375 31.175781 C 49.445312 31.175781 49.644531 31.257812 49.792969 31.40625 C 49.941406 31.554688 50.023438 31.753906 50.023438 31.964844 C 50.023438 32.171875 49.941406 32.375 49.792969 32.523438 C 49.644531 32.671875 49.445312 32.753906 49.234375 32.753906 L 20.570312 32.753906 C 20.363281 32.753906 20.160156 32.671875 20.011719 32.523438 C 19.867188 32.375 19.78125 32.171875 19.78125 31.964844 C 19.78125 31.753906 19.867188 31.554688 20.011719 31.40625 C 20.160156 31.257812 20.363281 31.175781 20.570312 31.175781 Z M 49.234375 31.175781 " fill-opacity="1" fill-rule="nonzero"/></g><g clip-path="url(#e144d5e114)"><path fill="#000000" d="M 49.234375 19.328125 C 49.445312 19.328125 49.644531 19.410156 49.792969 19.558594 C 49.941406 19.707031 50.023438 19.910156 50.023438 20.117188 C 50.023438 20.328125 49.941406 20.527344 49.792969 20.675781 C 49.644531 20.824219 49.445312 20.90625 49.234375 20.90625 L 34.976562 20.90625 C 34.765625 20.90625 34.566406 20.824219 34.417969 20.675781 C 34.269531 20.527344 34.1875 20.328125 34.1875 20.117188 C 34.1875 19.910156 34.269531 19.707031 34.417969 19.558594 C 34.566406 19.410156 34.765625 19.328125 34.976562 19.328125 Z M 49.234375 19.328125 " fill-opacity="1" fill-rule="nonzero"/></g><g clip-path="url(#24989c708e)"><path fill="#000000" d="M 43.21875 43.019531 C 43.429688 43.019531 43.628906 43.101562 43.777344 43.25 C 43.925781 43.398438 44.007812 43.601562 44.007812 43.808594 C 44.007812 44.019531 43.925781 44.222656 43.777344 44.367188 C 43.628906 44.515625 43.429688 44.601562 43.21875 44.601562 L 14.835938 44.601562 C 14.628906 44.601562 14.425781 44.515625 14.277344 44.367188 C 14.128906 44.222656 14.046875 44.019531 14.046875 43.808594 C 14.046875 43.601562 14.128906 43.398438 14.277344 43.25 C 14.425781 43.101562 14.628906 43.019531 14.835938 43.019531 Z M 43.21875 43.019531 " fill-opacity="1" fill-rule="nonzero"/></g><g clip-path="url(#5fa15d861d)"><path fill="#000000" d="M 28.449219 20.253906 C 28.449219 19.300781 28.824219 18.386719 29.5 17.710938 C 30.171875 17.039062 31.085938 16.660156 32.035156 16.660156 C 32.988281 16.660156 33.898438 17.039062 34.570312 17.710938 C 35.246094 18.386719 35.625 19.300781 35.625 20.253906 C 35.625 21.207031 35.246094 22.121094 34.570312 22.792969 C 33.898438 23.46875 32.988281 23.847656 32.035156 23.847656 C 31.085938 23.847656 30.171875 23.46875 29.5 22.792969 C 28.824219 22.121094 28.449219 21.207031 28.449219 20.253906 Z M 30.027344 20.253906 C 30.027344 19.71875 30.238281 19.207031 30.613281 18.828125 C 30.992188 18.453125 31.503906 18.238281 32.035156 18.238281 C 32.570312 18.238281 33.082031 18.453125 33.457031 18.828125 C 33.832031 19.207031 34.046875 19.71875 34.046875 20.253906 C 34.046875 20.785156 33.832031 21.300781 33.457031 21.675781 C 33.082031 22.054688 32.570312 22.265625 32.035156 22.265625 C 31.503906 22.265625 30.992188 22.054688 30.613281 21.675781 C 30.238281 21.300781 30.027344 20.785156 30.027344 20.253906 Z M 30.027344 20.253906 " fill-opacity="1" fill-rule="evenodd"/></g><g clip-path="url(#b9af140598)"><path fill="#000000" d="M 14.035156 31.96875 C 14.035156 31.015625 14.414062 30.097656 15.085938 29.425781 C 15.757812 28.75 16.671875 28.371094 17.621094 28.371094 C 18.574219 28.371094 19.488281 28.75 20.160156 29.425781 C 20.832031 30.097656 21.210938 31.015625 21.210938 31.96875 C 21.210938 32.921875 20.832031 33.835938 20.160156 34.507812 C 19.488281 35.183594 18.574219 35.5625 17.621094 35.5625 C 16.671875 35.5625 15.757812 35.183594 15.085938 34.507812 C 14.414062 33.835938 14.035156 32.921875 14.035156 31.96875 Z M 15.613281 31.96875 C 15.613281 31.433594 15.824219 30.921875 16.199219 30.542969 C 16.578125 30.164062 17.089844 29.953125 17.621094 29.953125 C 18.15625 29.953125 18.667969 30.164062 19.042969 30.542969 C 19.421875 30.921875 19.632812 31.433594 19.632812 31.96875 C 19.632812 32.5 19.421875 33.011719 19.042969 33.390625 C 18.667969 33.769531 18.15625 33.980469 17.621094 33.980469 C 17.089844 33.980469 16.578125 33.769531 16.199219 33.390625 C 15.824219 33.011719 15.613281 32.5 15.613281 31.96875 Z M 15.613281 31.96875 " fill-opacity="1" fill-rule="evenodd"/></g><g clip-path="url(#21971a8e62)"><path fill="#000000" d="M 42.847656 43.8125 C 42.847656 42.859375 43.226562 41.945312 43.898438 41.273438 C 44.570312 40.597656 45.484375 40.21875 46.4375 40.21875 C 47.386719 40.21875 48.300781 40.597656 48.972656 41.273438 C 49.644531 41.945312 50.023438 42.859375 50.023438 43.8125 C 50.023438 44.765625 49.644531 45.679688 48.972656 46.355469 C 48.300781 47.027344 47.386719 47.40625 46.4375 47.40625 C 45.484375 47.40625 44.570312 47.027344 43.898438 46.355469 C 43.226562 45.679688 42.847656 44.765625 42.847656 43.8125 Z M 44.425781 43.8125 C 44.425781 43.277344 44.636719 42.765625 45.015625 42.386719 C 45.390625 42.011719 45.902344 41.796875 46.4375 41.796875 C 46.96875 41.796875 47.480469 42.011719 47.859375 42.386719 C 48.234375 42.765625 48.445312 43.277344 48.445312 43.8125 C 48.445312 44.347656 48.234375 44.859375 47.859375 45.238281 C 47.480469 45.613281 46.96875 45.828125 46.4375 45.828125 C 45.902344 45.828125 45.390625 45.613281 45.015625 45.238281 C 44.636719 44.859375 44.425781 44.347656 44.425781 43.8125 Z M 44.425781 43.8125 " fill-opacity="1" fill-rule="evenodd"/></g><g clip-path="url(#0505551d11)"><path fill="#000000" d="M 29.023438 19.328125 C 29.234375 19.328125 29.433594 19.410156 29.582031 19.558594 C 29.730469 19.707031 29.8125 19.910156 29.8125 20.117188 C 29.8125 20.328125 29.730469 20.527344 29.582031 20.675781 C 29.433594 20.824219 29.234375 20.90625 29.023438 20.90625 L 14.835938 20.90625 C 14.628906 20.90625 14.425781 20.824219 14.277344 20.675781 C 14.128906 20.527344 14.046875 20.328125 14.046875 20.117188 C 14.046875 19.910156 14.128906 19.707031 14.277344 19.558594 C 14.425781 19.410156 14.628906 19.328125 14.835938 19.328125 Z M 29.023438 19.328125 " fill-opacity="1" fill-rule="nonzero"/></g></svg>