<svg xmlns="http://www.w3.org/2000/svg" xmlns:xlink="http://www.w3.org/1999/xlink" width="85" zoomAndPan="magnify" viewBox="0 0 63.75 63.749998" height="85" preserveAspectRatio="xMidYMid meet" version="1.0"><defs><clipPath id="8fb1f7c7b1"><path d="M 0 0 L 63.5 0 L 63.5 63.5 L 0 63.5 Z M 0 0 " clip-rule="nonzero"/></clipPath><clipPath id="bb7eb315c4"><path d="M 5.679688 5.679688 L 58.179688 5.679688 L 58.179688 58.179688 L 5.679688 58.179688 Z M 5.679688 5.679688 " clip-rule="nonzero"/></clipPath><clipPath id="3724e7e264"><path d="M 12 13.121094 L 43 13.121094 L 43 50.621094 L 12 50.621094 Z M 12 13.121094 " clip-rule="nonzero"/></clipPath><clipPath id="7043783f49"><path d="M 47 29 L 52.773438 29 L 52.773438 50.621094 L 47 50.621094 Z M 47 29 " clip-rule="nonzero"/></clipPath></defs><g clip-path="url(#8fb1f7c7b1)"><path fill="#ffffff" d="M 0 0 L 63.75 0 L 63.75 71.25 L 0 71.25 Z M 0 0 " fill-opacity="1" fill-rule="nonzero"/><path fill="#ffffff" d="M 0 0 L 63.75 0 L 63.75 63.75 L 0 63.75 Z M 0 0 " fill-opacity="1" fill-rule="nonzero"/></g><g clip-path="url(#bb7eb315c4)"><path fill="#adf4d5" d="M 58.179688 31.929688 C 58.179688 32.789062 58.136719 33.648438 58.054688 34.503906 C 57.96875 35.359375 57.84375 36.207031 57.675781 37.050781 C 57.507812 37.894531 57.300781 38.726562 57.050781 39.550781 C 56.800781 40.371094 56.511719 41.179688 56.183594 41.976562 C 55.851562 42.769531 55.484375 43.546875 55.082031 44.304688 C 54.675781 45.0625 54.234375 45.800781 53.757812 46.515625 C 53.277344 47.230469 52.765625 47.917969 52.222656 48.582031 C 51.675781 49.246094 51.101562 49.882812 50.492188 50.492188 C 49.882812 51.101562 49.246094 51.675781 48.582031 52.222656 C 47.917969 52.765625 47.230469 53.277344 46.515625 53.757812 C 45.800781 54.234375 45.0625 54.675781 44.304688 55.082031 C 43.546875 55.484375 42.769531 55.851562 41.976562 56.183594 C 41.179688 56.511719 40.371094 56.800781 39.550781 57.050781 C 38.726562 57.300781 37.894531 57.507812 37.050781 57.675781 C 36.207031 57.84375 35.359375 57.96875 34.503906 58.054688 C 33.648438 58.136719 32.789062 58.179688 31.929688 58.179688 C 31.070312 58.179688 30.214844 58.136719 29.355469 58.054688 C 28.5 57.96875 27.652344 57.84375 26.808594 57.675781 C 25.964844 57.507812 25.132812 57.300781 24.308594 57.050781 C 23.488281 56.800781 22.679688 56.511719 21.886719 56.183594 C 21.089844 55.851562 20.3125 55.484375 19.554688 55.082031 C 18.796875 54.675781 18.0625 54.234375 17.347656 53.757812 C 16.632812 53.277344 15.941406 52.765625 15.277344 52.222656 C 14.613281 51.675781 13.976562 51.101562 13.367188 50.492188 C 12.761719 49.882812 12.183594 49.246094 11.640625 48.582031 C 11.09375 47.917969 10.582031 47.230469 10.105469 46.515625 C 9.625 45.800781 9.183594 45.0625 8.78125 44.304688 C 8.375 43.546875 8.007812 42.769531 7.679688 41.976562 C 7.347656 41.179688 7.058594 40.371094 6.8125 39.550781 C 6.5625 38.726562 6.351562 37.894531 6.183594 37.050781 C 6.015625 36.207031 5.890625 35.359375 5.808594 34.503906 C 5.722656 33.648438 5.679688 32.789062 5.679688 31.929688 C 5.679688 31.070312 5.722656 30.214844 5.808594 29.355469 C 5.890625 28.5 6.015625 27.652344 6.183594 26.808594 C 6.351562 25.964844 6.5625 25.132812 6.8125 24.308594 C 7.058594 23.488281 7.347656 22.679688 7.679688 21.886719 C 8.007812 21.089844 8.375 20.3125 8.78125 19.554688 C 9.183594 18.796875 9.625 18.0625 10.105469 17.347656 C 10.582031 16.632812 11.09375 15.941406 11.640625 15.277344 C 12.183594 14.613281 12.761719 13.976562 13.367188 13.367188 C 13.976562 12.761719 14.613281 12.183594 15.277344 11.640625 C 15.941406 11.09375 16.632812 10.582031 17.347656 10.105469 C 18.0625 9.625 18.796875 9.183594 19.554688 8.78125 C 20.3125 8.375 21.089844 8.007812 21.886719 7.679688 C 22.679688 7.347656 23.488281 7.058594 24.308594 6.8125 C 25.132812 6.5625 25.964844 6.351562 26.808594 6.183594 C 27.652344 6.015625 28.5 5.890625 29.355469 5.808594 C 30.214844 5.722656 31.070312 5.679688 31.929688 5.679688 C 32.789062 5.679688 33.648438 5.722656 34.503906 5.808594 C 35.359375 5.890625 36.207031 6.015625 37.050781 6.183594 C 37.894531 6.351562 38.726562 6.5625 39.550781 6.8125 C 40.371094 7.058594 41.179688 7.347656 41.976562 7.679688 C 42.769531 8.007812 43.546875 8.375 44.304688 8.78125 C 45.0625 9.183594 45.800781 9.625 46.515625 10.105469 C 47.230469 10.582031 47.917969 11.09375 48.582031 11.640625 C 49.246094 12.183594 49.882812 12.761719 50.492188 13.367188 C 51.101562 13.976562 51.675781 14.613281 52.222656 15.277344 C 52.765625 15.941406 53.277344 16.632812 53.757812 17.347656 C 54.234375 18.0625 54.675781 18.796875 55.082031 19.554688 C 55.484375 20.3125 55.851562 21.089844 56.183594 21.886719 C 56.511719 22.679688 56.800781 23.488281 57.050781 24.308594 C 57.300781 25.132812 57.507812 25.964844 57.675781 26.808594 C 57.84375 27.652344 57.96875 28.5 58.054688 29.355469 C 58.136719 30.214844 58.179688 31.070312 58.179688 31.929688 Z M 58.179688 31.929688 " fill-opacity="1" fill-rule="nonzero"/></g><g clip-path="url(#3724e7e264)"><path fill="#000000" d="M 26.339844 13.199219 C 25.957031 13.195312 25.570312 13.210938 25.191406 13.238281 C 20.613281 13.566406 16.363281 16.09375 13.976562 20.261719 C 10.804688 25.796875 11.644531 32.675781 16.210938 37.363281 C 18.304688 39.515625 18.65625 41.578125 18.175781 44.34375 L 17.304688 49.371094 C 17.140625 50.253906 18.464844 50.488281 18.609375 49.597656 L 19.476562 44.570312 C 20 41.558594 19.511719 38.855469 17.152344 36.433594 C 12.976562 32.152344 12.234375 25.964844 15.121094 20.929688 C 18.007812 15.894531 23.878906 13.492188 29.484375 14.945312 C 31.453125 15.457031 33.851562 16.746094 35.707031 18.796875 C 37.558594 20.84375 38.886719 23.625 38.816406 27.226562 C 38.816406 27.335938 38.835938 27.4375 38.882812 27.53125 L 41.289062 32.542969 C 41.5 32.980469 41.445312 33.238281 41.175781 33.339844 L 38.917969 34.207031 C 38.644531 34.308594 38.46875 34.582031 38.492188 34.875 L 38.640625 36.863281 L 35.109375 37.175781 C 34.761719 37.207031 34.503906 37.492188 34.503906 37.835938 C 34.503906 38.71875 34.921875 39.550781 35.636719 40.113281 C 36.171875 40.539062 36.988281 40.660156 37.796875 40.773438 L 37.554688 42.796875 C 37.496094 43.285156 37.046875 43.414062 36.675781 43.535156 C 36.039062 43.738281 35.011719 43.722656 33.804688 43.546875 L 26.851562 41.554688 C 25.542969 41.179688 25.09375 40.667969 24.386719 39.441406 C 24.265625 39.222656 24.035156 39.089844 23.785156 39.097656 C 23.28125 39.117188 22.980469 39.671875 23.242188 40.105469 C 24.011719 41.449219 24.898438 42.378906 26.488281 42.832031 L 32.898438 44.667969 L 32.003906 49.359375 C 31.808594 50.25 33.160156 50.507812 33.304688 49.609375 L 34.210938 44.847656 C 35.242188 44.953125 36.242188 45.023438 37.007812 44.820312 C 38.0625 44.539062 38.757812 43.910156 38.871094 42.953125 L 39.171875 40.410156 C 39.21875 40.015625 38.914062 39.667969 38.515625 39.664062 C 37.574219 39.664062 36.882812 39.414062 36.453125 39.074219 C 36.226562 38.894531 36.222656 38.640625 36.121094 38.417969 L 39.410156 38.128906 C 39.765625 38.097656 40.035156 37.777344 40.007812 37.414062 L 39.847656 35.269531 L 41.652344 34.582031 C 42.769531 34.15625 42.945312 32.925781 42.484375 31.964844 L 40.097656 27 C 40.097656 23.183594 38.683594 20.109375 36.6875 17.902344 C 34.640625 15.640625 32.054688 14.238281 29.816406 13.65625 C 28.664062 13.359375 27.496094 13.210938 26.339844 13.199219 Z M 26.339844 13.199219 " fill-opacity="1" fill-rule="evenodd"/></g><path fill="#000000" d="M 43.882812 35.640625 C 43.378906 35.65625 43.082031 36.207031 43.339844 36.640625 C 44.390625 38.476562 44.390625 40.734375 43.339844 42.570312 C 43.136719 42.890625 43.238281 43.3125 43.566406 43.503906 C 43.894531 43.695312 44.3125 43.570312 44.484375 43.230469 C 45.769531 40.988281 45.769531 38.222656 44.484375 35.980469 C 44.363281 35.761719 44.132812 35.628906 43.882812 35.640625 Z M 43.882812 35.640625 " fill-opacity="1" fill-rule="evenodd"/><path fill="#000000" d="M 45.324219 31.800781 C 44.730469 31.796875 44.433594 32.527344 44.859375 32.945312 C 46.617188 34.710938 47.605469 37.105469 47.605469 39.605469 C 47.605469 42.105469 46.617188 44.503906 44.859375 46.273438 C 44.238281 46.902344 45.175781 47.839844 45.796875 47.210938 C 47.800781 45.195312 48.925781 42.457031 48.925781 39.605469 C 48.925781 36.753906 47.800781 34.023438 45.796875 32.003906 C 45.675781 31.875 45.503906 31.800781 45.324219 31.800781 Z M 45.324219 31.800781 " fill-opacity="1" fill-rule="evenodd"/><g clip-path="url(#7043783f49)"><path fill="#000000" d="M 48.050781 29.050781 C 47.457031 29.050781 47.164062 29.777344 47.589844 30.195312 C 50.066406 32.691406 51.457031 36.074219 51.457031 39.605469 C 51.457031 43.136719 50.066406 46.519531 47.589844 49.015625 C 47.3125 49.273438 47.300781 49.710938 47.566406 49.976562 C 47.835938 50.246094 48.273438 50.234375 48.523438 49.953125 C 51.25 47.207031 52.78125 43.488281 52.78125 39.605469 C 52.78125 35.726562 51.25 32 48.523438 29.257812 C 48.398438 29.128906 48.230469 29.054688 48.050781 29.050781 Z M 48.050781 29.050781 " fill-opacity="1" fill-rule="evenodd"/></g></svg>